<svg width="510" height="510" fill="none" xmlns="http://www.w3.org/2000/svg"><circle cx="255" cy="255" r="254.5" stroke="#9D252F" stroke-opacity=".6"/><circle cx="255" cy="255" r="219.416" stroke="#9D252F" stroke-opacity=".8"/><g filter="url(#filter0_i_1_215)"><circle cx="255" cy="255" r="187.399" fill="#9D252F"/></g><path d="M257.985 290.893h10.609a370.46 370.46 0 011.819 12.125c.606 4.547 1.212 9.094 1.515 13.944.607 4.85.91 9.7 1.213 14.549.303 4.85.303 9.094.303 13.338H130.067v-16.672l96.696-145.802h-64.868l-14.55 36.375h-10.306a119.504 119.504 0 01-2.425-12.731c-.606-4.85-1.213-9.397-1.516-14.247-.606-4.85-.909-9.397-.909-13.944-.303-4.546-.303-8.487-.303-11.821h135.799v16.671l-96.393 145.499h71.234l15.459-37.284zm122.158 53.956h-45.468v-6.972c1.515-.909 3.031-1.516 4.546-2.425 1.516-.606 3.032-1.516 5.153-2.122v-43.346c0-3.941-.303-7.275-.606-10.003-.303-3.032-.909-5.457-1.819-7.275-.909-2.122-2.121-3.638-3.637-4.547-1.516-.91-3.637-1.516-6.062-1.516-2.122 0-3.941.303-5.76 1.213-1.819.909-3.334 2.122-4.547 3.637-1.212 1.516-2.425 3.334-3.334 5.153-.909 2.122-1.819 4.244-2.425 6.366v50.318c1.819.606 3.638 1.213 4.85 1.819 1.516.606 3.031 1.515 4.547 2.728v6.972h-45.772v-6.972c1.516-.909 3.032-1.516 4.547-2.122 1.516-.606 3.638-1.516 6.063-2.122v-66.687l-10.61-1.212v-6.972c1.516-.606 3.638-1.516 6.063-2.122 2.425-.606 4.85-1.212 7.578-1.819 2.728-.606 5.456-1.212 8.487-1.515 2.728-.303 5.456-.91 8.185-.91h6.062v18.794c1.213-2.425 2.122-4.547 3.334-6.366 1.213-1.818 2.729-3.334 4.244-4.85 1.819-2.121 4.547-3.637 7.578-5.153 3.031-1.515 6.366-2.121 10.003-2.121 4.547 0 8.488.606 12.125 1.818 3.638 1.213 6.669 3.335 9.094 6.063 2.425 3.031 4.244 6.668 5.456 11.822 1.212 4.849 1.819 11.215 1.819 18.49v43.347c2.425.303 4.243.909 5.759 1.818 1.516.606 3.031 1.516 4.85 2.728v6.063h-.303z" fill="#fff" fill-opacity=".8"/><defs><filter id="filter0_i_1_215" x="67.601" y="67.601" width="374.799" height="374.799" filterUnits="userSpaceOnUse" color-interpolation-filters="sRGB"><feFlood flood-opacity="0" result="BackgroundImageFix"/><feBlend in="SourceGraphic" in2="BackgroundImageFix" result="shape"/><feColorMatrix in="SourceAlpha" values="0 0 0 0 0 0 0 0 0 0 0 0 0 0 0 0 0 0 127 0" result="hardAlpha"/><feOffset/><feGaussianBlur stdDeviation="15"/><feComposite in2="hardAlpha" operator="arithmetic" k2="-1" k3="1"/><feColorMatrix values="0 0 0 0 1 0 0 0 0 1 0 0 0 0 1 0 0 0 1 0"/><feBlend in2="shape" result="effect1_innerShadow_1_215"/></filter></defs></svg>