<svg width="27" height="27" fill="none" xmlns="http://www.w3.org/2000/svg"><circle cx="13.5" cy="13.5" r="13.5" fill="url(#paint0_linear_1_164)"/><path fill-rule="evenodd" clip-rule="evenodd" d="M20.157 9.138l-8.092 7.721-4.222-4.028a.511.511 0 00-.699 0 .46.46 0 000 .67l4.572 4.361c.034.032.075.051.114.072.017.01.031.024.049.031a.511.511 0 00.372 0c.018-.007.032-.022.049-.03.04-.022.08-.041.114-.073l8.44-8.055a.459.459 0 00.002-.668.51.51 0 00-.7-.001z" fill="#fff"/><defs><linearGradient id="paint0_linear_1_164" x1="13.5" y1="0" x2="23.236" y2="23.181" gradientUnits="userSpaceOnUse"><stop stop-color="#A63F43"/><stop offset="1" stop-color="#92232C"/></linearGradient></defs></svg>