<svg width="18" height="18" fill="none" xmlns="http://www.w3.org/2000/svg"><circle cx="9" cy="9" r="9" fill="url(#paint0_linear_1_272)"/><path fill-rule="evenodd" clip-rule="evenodd" d="M13.438 6.092L8.043 11.24 5.23 8.554a.34.34 0 00-.467 0 .306.306 0 000 .446l3.047 2.908c.023.022.05.035.077.048.01.006.02.016.032.021a.341.341 0 00.248 0c.012-.005.021-.015.033-.02.026-.014.053-.027.076-.049l5.627-5.37a.306.306 0 000-.445.34.34 0 00-.465 0z" fill="#fff"/><defs><linearGradient id="paint0_linear_1_272" x1="9" y1="0" x2="15.491" y2="15.454" gradientUnits="userSpaceOnUse"><stop stop-color="#A63F43"/><stop offset="1" stop-color="#92232C"/></linearGradient></defs></svg>