<svg width="38" height="40" fill="none" xmlns="http://www.w3.org/2000/svg"><path d="M27.096 20.625a1.76 1.76 0 00.514 1.25c.652.683 1.827.683 2.48 0l.772-.775.769.775c.653.683 1.827.683 2.48 0 .68-.655.68-1.835 0-2.49l-.769-.78.772-.775c.68-.656.68-1.835 0-2.49-.653-.684-1.827-.684-2.48 0l-.771.776-.772-.775c-.653-.684-1.827-.684-2.48 0-.68.655-.68 1.835 0 2.49l.772.776-.772.775a1.751 1.751 0 00-.515 1.243zm1.34-.416l1.186-1.19a.59.59 0 000-.83L28.436 17a.59.59 0 01.422-.976.583.583 0 01.405.148l1.185 1.19a.584.584 0 00.827 0l1.184-1.19a.583.583 0 01.986.419.589.589 0 01-.159.411l-1.184 1.19a.587.587 0 000 .83l1.184 1.19a.589.589 0 01-.417.99.584.584 0 01-.41-.159l-1.184-1.19a.583.583 0 00-.827 0l-1.185 1.19a.584.584 0 01-.985-.419.589.589 0 01.159-.412v-.003zm-13.633-9.243a.585.585 0 00-.828.022s-.283.268-.843.349a.585.585 0 00-.51.625.59.59 0 00.677.54c.97-.14 1.472-.646 1.527-.703a.59.59 0 00-.023-.833zm5.756 1.534a.585.585 0 00.678-.54.59.59 0 00-.511-.626c-.56-.078-.84-.346-.843-.348a.586.586 0 00-1.013.39.592.592 0 00.16.42c.057.059.559.565 1.529.704zm-4.484 3.894c.03-.184.18-.785.921-.785.74 0 .893.599.922.785a.588.588 0 00.66.5.584.584 0 00.498-.662c-.083-.625-.623-1.797-2.08-1.797-1.456 0-1.995 1.176-2.079 1.797a.592.592 0 00.579.669.58.58 0 00.579-.507z" fill="#832F34"/><path d="M34.71 27.834c-1.267-.986-2.845-1.641-4.558-1.9v-.006c-1.434-1.887-7.196-3.791-8.92-4.328v-1.953c.88-.67 1.551-1.49 1.915-2.372.26-.625.478-1.444.66-2.314a3.088 3.088 0 002.16-.711 3.121 3.121 0 00.72-3.916 3.1 3.1 0 00-1.597-1.382 3.2 3.2 0 00.242-.768c.283-1.47-.162-3.84-1.538-5.339-1.085-1.18-2.494-1.304-3.102-1.295-.686-.613-2.999-2.275-7.04-1.192-3.007.805-5.105 4.047-5.325 6.589-.07.812.057 1.508.36 2.037a3.102 3.102 0 00-1.542 1.41 3.122 3.122 0 00.77 3.866 3.088 3.088 0 001.963.705c.058 0 .117 0 .175-.006.183.87.402 1.687.66 2.314.365.883 1.036 1.701 1.917 2.372v1.953c-1.725.536-7.487 2.441-8.921 4.328-1.114 1.468-3.19 6.927-3.19 13.487a.589.589 0 00.58.587h27.33c2.367 0 4.597-.721 6.281-2.031 1.729-1.344 2.68-3.144 2.68-5.069 0-1.925-.951-3.723-2.68-5.066zm-8.802-15.98c0 .506-.198.991-.55 1.353-.352.361-.83.57-1.333.582.255-1.503.41-2.987.485-3.795.402.116.756.36 1.008.696.253.335.39.744.39 1.165zm-17.958 0c.001-.42.138-.83.39-1.165a1.93 1.93 0 011.01-.695c.078.808.234 2.292.487 3.795a1.925 1.925 0 01-1.336-.581 1.942 1.942 0 01-.55-1.353zm1.541-4.806c.187-2.156 2.023-4.903 4.463-5.556a8.76 8.76 0 012.27-.32c2.52 0 3.745 1.298 3.81 1.366a.593.593 0 00.503.196c.058-.006 1.42-.151 2.395.91 1.062 1.155 1.478 3.143 1.25 4.32-.084.436-.25.742-.456.841-.715.343-2.059-.537-3.505-2.297a1.364 1.364 0 00-1.863-.235c-1.236.915-5.487 3.805-8.238 2.526-.677-.315-.665-1.33-.629-1.75zm5.362 13.797a.582.582 0 00.741-.356.589.589 0 00-.345-.748c-1.657-.6-2.95-1.694-3.452-2.918-.7-1.685-1.096-5.053-1.254-6.653.376.083.76.125 1.145.124 2.85 0 5.965-2.038 7.367-3.076a.195.195 0 01.268.034c1.755 2.138 3.073 2.775 4.01 2.798-.15 1.544-.551 5.044-1.265 6.773-.51 1.224-1.802 2.318-3.46 2.918a.584.584 0 00-.358.753.588.588 0 00.528.387.581.581 0 00.227-.037c.36-.13.713-.284 1.054-.46v1.651a3.152 3.152 0 01-.934 2.192 3.124 3.124 0 01-4.392 0 3.152 3.152 0 01-.934-2.192v-1.651c.34.176.693.33 1.054.46zM1.886 35.907h4.356l-.389 2.919H1.69c.02-1.006.09-1.982.196-2.919zm5.148 2.921l.856-6.424a.59.59 0 00-.502-.66.582.582 0 00-.657.504L6.4 34.734H2.044c.61-4.03 1.86-7.129 2.597-8.093.319-.42 1.371-1.328 4.834-2.685a56.215 56.215 0 013.229-1.145 4.32 4.32 0 001.475 2.541 4.287 4.287 0 005.507 0 4.321 4.321 0 001.475-2.541c.726.234 1.944.642 3.229 1.145 1.939.761 3.122 1.38 3.843 1.851-.913.013-1.822.14-2.706.377l-1.878-1.497a1.36 1.36 0 00-2.004.344c-.136.218-.209.47-.209.728v2.7c-1.27 1.254-1.967 2.823-1.967 4.443 0 1.925.952 3.725 2.68 5.068a9 9 0 001.334.86l-16.449-.002zm21.395 0c-4.295 0-7.79-2.656-7.79-5.924 0-1.366.63-2.7 1.777-3.76a.586.586 0 00.19-.431v-2.954a.188.188 0 01.11-.175.198.198 0 01.087-.021c.043 0 .085.015.119.043l2.11 1.685a.582.582 0 00.532.103 9.898 9.898 0 012.866-.416c4.296 0 7.792 2.656 7.792 5.924 0 3.267-3.496 5.926-7.793 5.926z" fill="#832F34"/><path d="M29.966 29.355a2.03 2.03 0 00-1.537.239 2.028 2.028 0 00-1.535-.239c-.809.203-2.1 1.168-1.793 3.497.128.977.516 3.951 3.329 3.951 2.812 0 3.201-2.975 3.329-3.951.304-2.329-.984-3.293-1.793-3.497zM30.6 32.7c-.272 2.08-.9 2.93-2.17 2.93s-1.898-.85-2.17-2.93c-.246-1.89.87-2.193.918-2.205a.775.775 0 01.193-.024.932.932 0 01.474.14v2.134a.588.588 0 00.584.544.583.583 0 00.583-.544V30.61a.872.872 0 01.668-.117c.05.012 1.166.315.92 2.205z" fill="#832F34"/></svg>