<svg width="36" height="40" fill="none" xmlns="http://www.w3.org/2000/svg"><path d="M32.18 26.308a.59.59 0 00-.138.819 10.39 10.39 0 011.912 6.032v2.094h-4.42v-2.77a.586.586 0 10-1.17 0v6.342H17.807c.368-.491.586-1.1.586-1.76V27.003c.03-.816-1.025-1.297-1.616-.737l-2.546 2.236h-2.344a10.358 10.358 0 016.447-5.376c.24 2.026 1.961 3.602 4.042 3.602 2.081 0 3.802-1.576 4.043-3.602 1.54.44 2.965 1.238 4.156 2.332a.583.583 0 00.827-.037.59.59 0 00-.037-.83 11.547 11.547 0 00-4.126-2.439 8.018 8.018 0 002.793-4.141c.265.08.54.12.82.12a2.89 2.89 0 002.882-2.893c0-.625-.199-1.203-.535-1.676 1.443-3.597 1.45-7.097.007-9.647-.887-1.569-2.245-2.584-3.727-2.785a6.746 6.746 0 00-3.415.399 3.423 3.423 0 00-.738-.638c-.99-.645-2.364-.942-4.086-.885-1.431.048-2.778.618-4.237 1.792a.59.59 0 00-.09.826c.202.253.57.294.822.091 1.252-1.008 2.378-1.495 3.544-1.534 3.222-.108 3.995 1.224 4.047 1.323.117.331.542.464.834.274.013-.007 1.292-.737 3.162-.483 1.117.151 2.162.953 2.867 2.2.586 1.036 1.711 3.843.08 8.225a2.854 2.854 0 00-1.936-.328v-.096c0-.817-.337-1.598-.925-2.143-1.335-1.238-2.847-3.419-3.435-4.3-.329-.521-1.128-.578-1.53-.112-3.032 3.326-7.03 4.405-8.608 4.715a1.762 1.762 0 00-1.416 1.728v.208a2.875 2.875 0 00-1.42.098c-.526-.864-1.709-3.112-1.835-6.045.53.054 1.273.07 1.979-.12 1.023-.277 1.975-1.19 2.896-2.071a.59.59 0 00.02-.831.583.583 0 00-.828-.02c-.815.78-1.657 1.588-2.393 1.787-.972.263-2.122-.002-2.133-.004a.59.59 0 00-.72.563c-.052 3.553 1.344 6.26 1.998 7.33a2.892 2.892 0 00-.964 2.158 2.89 2.89 0 002.88 2.894c.281 0 .557-.041.822-.12a8.017 8.017 0 002.79 4.14 11.538 11.538 0 00-6.915 6.35H3.448A2.933 2.933 0 00.525 31.44v5.625A2.933 2.933 0 003.448 40h3.137a.586.586 0 00.585-.588.586.586 0 00-.585-.588H3.448c-.967 0-1.753-.79-1.753-1.76v-5.625c0-.971.786-1.761 1.753-1.761H14.45a.583.583 0 00.386-.146l2.386-2.096v9.628c0 .97-.786 1.76-1.753 1.76H8.923a.586.586 0 00-.585.589c0 .324.261.587.585.587h25.616a.586.586 0 00.585-.587v-6.254c0-2.423-.736-4.744-2.128-6.713a.583.583 0 00-.816-.139zm-1.848-10.476v-2.23c.168-.054.343-.082.52-.082.943 0 1.71.771 1.71 1.719 0 .947-.767 1.718-1.71 1.718-.201 0-.399-.035-.585-.104.043-.334.065-.675.065-1.021zM13.9 16.957c-.944 0-1.711-.77-1.711-1.718s.767-1.719 1.71-1.719c.178 0 .353.028.52.082v2.23c0 .346.023.687.066 1.021a1.698 1.698 0 01-.585.104zm8.476 8.597a2.91 2.91 0 01-2.825-2.251c.878.336 1.83.521 2.825.521.995 0 1.947-.185 2.826-.521a2.91 2.91 0 01-2.826 2.25zm-6.787-9.722v-3.647c0-.28.198-.521.47-.575 1.664-.326 5.836-1.452 9.08-4.895.688 1.015 2.146 3.07 3.476 4.303.348.323.548.789.548 1.279v3.535c0 3.759-3.044 6.817-6.787 6.817-3.742 0-6.787-3.058-6.787-6.817zm18.366 22.993h-4.42v-2.397h4.42v2.397z" fill="#832F34"/><path d="M18.063 14.838c.039-.005.972-.121 1.794-.48a.589.589 0 00.303-.774.584.584 0 00-.77-.304c-.661.29-1.46.39-1.468.391a.587.587 0 00.14 1.167zm6.83-.48c.822.359 1.756.475 1.795.48a.586.586 0 00.65-.512.587.587 0 00-.509-.655c-.008-.001-.807-.102-1.469-.391a.584.584 0 00-.77.305.589.589 0 00.303.773zm-3.957 4.379h2.895a.586.586 0 00.585-.588.586.586 0 00-.585-.588h-2.895a.586.586 0 00-.585.588c0 .325.262.588.585.588zM7.96 20.086h.968L7.51 21.791a.59.59 0 00.449.965h2.218a.586.586 0 00.585-.588.586.586 0 00-.585-.588H9.21l1.417-1.705a.59.59 0 00-.449-.964H7.96a.586.586 0 00-.585.587c0 .325.262.588.585.588zm23.775-.209c0 .325.262.588.586.588h.968L31.87 22.17a.59.59 0 00.45.964h2.218a.586.586 0 00.585-.587.586.586 0 00-.585-.588h-.968l1.417-1.706a.59.59 0 00-.449-.964H32.32a.586.586 0 00-.585.588zM4.308 10.412h.968L3.86 12.117a.59.59 0 00.45.964h2.218a.586.586 0 00.585-.588.586.586 0 00-.585-.587H5.56L6.976 10.2a.59.59 0 00-.45-.964H4.308a.586.586 0 00-.585.588c0 .325.262.588.585.588zm8.759 24.969a.582.582 0 00.801-.546v-1.252a.586.586 0 00-.801-.546 1.368 1.368 0 00-1.353-1.202H6.695c-.752 0-1.364.615-1.364 1.37v2.008c0 .755.612 1.37 1.364 1.37h5.019c.695 0 1.27-.526 1.353-1.202zm-1.159-2.175v2.007a.195.195 0 01-.194.195H8.95V33.01h2.763c.107 0 .194.087.194.195zm-5.213 2.202a.195.195 0 01-.194-.195v-2.007c0-.108.087-.195.194-.195h1.086v2.397H6.695z" fill="#832F34"/></svg>