<svg width="37" height="40" fill="none" xmlns="http://www.w3.org/2000/svg"><path d="M30.21 24.822a.586.586 0 00.404-.723l-1.535-5.488.132-3.76a.584.584 0 10-1.166-.041l-.134 3.844v.007c-.296 9.33-.347 10.715-.347 10.724l.506 9.443H14.145a.585.585 0 00-.583.586c0 .324.261.586.584.586h14.13a.974.974 0 00.97-1.029l-.515-9.623.222-6.855.538 1.923a.583.583 0 00.72.406zM11.423 38.828H8.997l.507-9.493c-.064-2.008-.325-9.991-.346-10.674v-.007l-.135-3.845a.585.585 0 00-.604-.564.585.585 0 00-.562.606l.131 3.76-1.534 5.488a.583.583 0 101.123.317l.538-1.923.222 6.855-.516 9.623a.974.974 0 00.97 1.03h2.632a.585.585 0 00.584-.587.585.585 0 00-.584-.586z" fill="#832F34"/><path d="M22.944 5.54l7.736 2.374c.588.18 1.044.665 1.19 1.263l3.286 13.509a.583.583 0 101.134-.278L33.003 8.899a2.937 2.937 0 00-1.982-2.105l-7.736-2.375a.195.195 0 01-.138-.187V.586a.585.585 0 10-1.167 0v3.646c0 .605.387 1.13.964 1.308zM1.206 23.116a.583.583 0 00.705-.43L5.2 9.177a1.762 1.762 0 011.189-1.263l7.736-2.374a1.36 1.36 0 00.963-1.308V.586a.585.585 0 10-1.167 0v3.646a.195.195 0 01-.137.187L6.047 6.794a2.936 2.936 0 00-1.982 2.105L.778 22.408a.586.586 0 00.428.708z" fill="#832F34"/><path d="M19.475 10.426c.26.19.625.133.815-.129l.483-.668a.657.657 0 01.531-.271h3.88a.585.585 0 00.583-.586.585.585 0 00-.583-.586h-3.88c-.581 0-1.132.282-1.474.754l-.484.668a.588.588 0 00.129.818zM11.3 8.772c0 .323.262.586.584.586h3.88c.21 0 .408.101.53.271l.484.668c.19.262.555.32.815.13a.588.588 0 00.129-.82l-.484-.667a1.826 1.826 0 00-1.474-.754h-3.88a.584.584 0 00-.583.586zm5.71 21.878a2.12 2.12 0 00-.226.955v3.897c0 .847.686 1.536 1.529 1.536h.442c.843 0 1.53-.689 1.53-1.536V33.19c0-.108.086-.195.194-.195h1.725c.794 0 1.537-.315 2.09-.887a2.915 2.915 0 00.825-2.125 2.92 2.92 0 00-1.181-2.251 2.932 2.932 0 001.183-2.355 2.926 2.926 0 00-2.917-2.93h-1.459a2.1 2.1 0 00.218-.933v-7.367a1.17 1.17 0 00-1.166-1.17h-1.169a1.17 1.17 0 00-1.165 1.17v1.212c0 .324.26.586.583.586a.584.584 0 00.583-.586v-1.21h1.167v7.365a.933.933 0 01-.93.934h-3.32a.585.585 0 00-.583.586c0 .323.261.586.584.586h6.657c.965 0 1.75.788 1.75 1.757 0 .97-.785 1.758-1.75 1.758h-6.657a.585.585 0 00-.584.586c0 .324.261.586.584.586h6.608c.966 0 1.773.766 1.798 1.708a1.75 1.75 0 01-.494 1.276 1.733 1.733 0 01-1.255.532h-1.725c-.75 0-1.362.613-1.362 1.367v2.312c0 .2-.162.364-.362.364h-.442a.363.363 0 01-.362-.364v-3.897c0-.526.426-.954.95-.954h2.667a.585.585 0 00.583-.586.585.585 0 00-.583-.586h-6.704c-.965 0-1.75-.788-1.75-1.758 0-.969.785-1.758 1.75-1.758h6.704a.585.585 0 00.583-.585.585.585 0 00-.583-.586h-6.704c-.476 0-.922-.19-1.254-.533a1.75 1.75 0 01-.495-1.275c.026-.942.832-1.708 1.798-1.708h2.355c.75 0 1.361-.613 1.361-1.367v-1.815a.585.585 0 00-.583-.586.585.585 0 00-.583.586v1.815a.195.195 0 01-.195.195h-2.355c-1.592 0-2.922 1.278-2.964 2.848a2.915 2.915 0 001.165 2.427 2.931 2.931 0 00-1.167 2.342 2.926 2.926 0 002.917 2.93h2.145zm18.376-3.9l-1.68.899-.053-.113a.861.861 0 00-1.215-.382l-1.741 1.015a.587.587 0 00.293 1.092c.273 0 .303-.114 1.747-.927l.047.103a.863.863 0 001.187.398l1.963-1.05a.587.587 0 00.241-.793.582.582 0 00-.789-.242zm-.4 6.752l-1.804-.613.046-.116a.871.871 0 00-.556-1.15l-1.93-.577a.586.586 0 00-.333 1.123l1.612.482-.041.105a.866.866 0 00.526 1.14c2.212.746 2.123.747 2.293.747a.587.587 0 00.187-1.141zm-31.211-4.61a.868.868 0 00.508-.455l.048-.103c1.455.82 1.475.927 1.747.927a.587.587 0 00.293-1.093l-1.742-1.015a.86.86 0 00-1.214.383l-.053.113-1.68-.899a.582.582 0 00-.79.242.587.587 0 00.241.793l1.963 1.05c.208.11.455.131.679.056zm2.551 2.154l-1.93.577a.866.866 0 00-.556 1.15l.046.116-1.804.613a.587.587 0 00.187 1.141c.17 0 .074.002 2.294-.746a.865.865 0 00.525-1.14l-.041-.106 1.612-.482a.586.586 0 00-.333-1.123z" fill="#832F34"/></svg>