<svg width="40" height="34" fill="none" xmlns="http://www.w3.org/2000/svg"><path d="M39.897 16.645a23.383 23.383 0 00-19.23-10.957V.333h-1.334v5.355A23.382 23.382 0 00.103 16.645a.667.667 0 000 .71 23.382 23.382 0 0019.23 10.957v5.355h1.334v-5.355a23.382 23.382 0 0019.23-10.957.666.666 0 000-.71zM1.46 17a22.066 22.066 0 0111.487-8.855 11.31 11.31 0 00-4.245 8.188H3.333v1.334h5.368a11.31 11.31 0 004.245 8.188A22.066 22.066 0 011.459 17zm17.874 6v3.966a10 10 0 01-9.3-9.3H14v-1.333h-3.966a10 10 0 019.3-9.299V11h1.333V7.034a10 10 0 019.299 9.3H26v1.333h3.966a10 10 0 01-9.3 9.299V23h-1.333zm19.208-6a22.066 22.066 0 01-11.487 8.855 11.31 11.31 0 004.245-8.188h5.368v-1.334H31.3a11.31 11.31 0 00-4.245-8.188A22.066 22.066 0 0138.541 17z" fill="#832F34"/><path d="M20 12.333a4.667 4.667 0 100 9.334 4.667 4.667 0 000-9.334zm0 8a3.333 3.333 0 110-6.667 3.333 3.333 0 010 6.667zm-16-20A.667.667 0 003.333 1v5.333h1.334V1.667h4.666V.333H4zm32 0h-5.333v1.334h4.666v4.666h1.334V1A.667.667 0 0036 .333zm-.667 27.334v4.666h-4.666v1.334H36a.667.667 0 00.667-.667v-5.333h-1.334zM4.667 32.333v-4.666H3.333V33c0 .368.299.667.667.667h5.333v-1.334H4.667z" fill="#832F34"/></svg>