<svg width="41" height="40" fill="none" xmlns="http://www.w3.org/2000/svg"><path d="M31.651 19.588a.585.585 0 00.584-.586.788.788 0 111.358.544.78.78 0 01-.571.246.585.585 0 00-.584.586v1.44a.585.585 0 101.167 0v-.944a1.96 1.96 0 001.368-1.976 1.964 1.964 0 00-1.911-1.858 1.954 1.954 0 00-1.994 1.962c0 .323.261.586.583.586zM16.315 9.766a.585.585 0 00.584-.586V4.96a.585.585 0 10-1.167 0v4.22c0 .323.261.586.583.586zM33.933 12.5c3.431 0 6.223-2.804 6.223-6.25S37.364 0 33.933 0 27.71 2.804 27.71 6.25s2.792 6.25 6.223 6.25zm0-11.328c2.788 0 5.056 2.278 5.056 5.078 0 2.8-2.268 5.078-5.056 5.078-2.788 0-5.056-2.278-5.056-5.078 0-2.8 2.268-5.078 5.056-5.078zM8.527 4.21a1.964 1.964 0 00-1.95-1.858 1.957 1.957 0 00-1.955 1.962.585.585 0 101.167 0 .788.788 0 01.788-.79h.016a.79.79 0 01-.017 1.58.585.585 0 00-.583.587v1.44a.585.585 0 101.166 0v-.944A1.96 1.96 0 008.527 4.21zM6.593 8.929a.585.585 0 00-.584.586v.039a.585.585 0 101.167 0v-.04a.585.585 0 00-.583-.585zm.311 19.531a.585.585 0 00-.583.586v.04a.585.585 0 101.166 0v-.04a.585.585 0 00-.583-.586zm0-1.194a.585.585 0 00.583-.586v-4.22a.585.585 0 10-1.167 0v4.22c0 .323.261.586.584.586z" fill="#832F34"/><path d="M39.54 28.924a.585.585 0 00-.556.611 5.2 5.2 0 01.005.23c0 2.8-2.268 5.078-5.056 5.078a5.04 5.04 0 01-1.274-.163 5.65 5.65 0 00-3.397-2.97 5.055 5.055 0 01-.385-1.945c0-2.8 2.268-5.078 5.056-5.078 1.784 0 3.455.961 4.361 2.508a.58.58 0 00.799.207.587.587 0 00.207-.802 6.225 6.225 0 00-1.48-1.71 6.216 6.216 0 001.402-3.953c0-3.446-2.791-6.25-6.223-6.25a6.178 6.178 0 00-3.395 1.014c-.242-1.658-.982-3.447-2.399-4.797a.582.582 0 00-.824.021.588.588 0 00.021.829c1.812 1.727 2.389 4.475 2.023 6.298-.108.536-.29.975-.53 1.294-.328-1.219-1.192-1.924-1.877-2.374-1.043-.684-2.113-.72-3.149-.755-1.572-.053-3.198-.109-5.373-2.206l-.221-2.173c1.616-1.568 4.096-2.107 6.695-1.44.111.028.222.06.328.095a.586.586 0 00.358-1.115 6.753 6.753 0 00-.397-.116 10.07 10.07 0 00-1.797-.293c.024-.228.037-.458.037-.688 0-3.446-2.791-6.25-6.223-6.25-1.52 0-2.97.555-4.098 1.548C11.178 1.465 9.034 0 6.554 0 3.122 0 .33 2.804.33 6.25a6.26 6.26 0 001.516 4.088c.21.245.58.272.823.06a.588.588 0 00.06-.827A5.09 5.09 0 011.497 6.25c0-2.8 2.268-5.078 5.056-5.078 2.787 0 5.055 2.278 5.055 5.078 0 2.8-2.268 5.078-5.055 5.078a5.015 5.015 0 01-1.823-.34.587.587 0 00-.42 1.093c.715.278 1.47.419 2.243.419 1.567 0 3-.586 4.095-1.55a6.263 6.263 0 001.037 1.55c-.659.82-1.303 2.14-1.303 4.168 0 1.155.349 2.613 1.097 3.507a2.343 2.343 0 00-.73.724 6.137 6.137 0 00-3.885-1.368c-3.431 0-6.223 2.804-6.223 6.25s2.792 6.25 6.223 6.25c3.43 0 6.222-2.804 6.222-6.25a6.33 6.33 0 00-.032-.639l.047.004c.2.45.467.901.826 1.402.776 1.083 1.613 1.98 2.472 2.667l-.227 1.959-1.218.369a1.29 1.29 0 00-1.444-.507l-2.141.648c-.895.261-1.885.872-2.615 1.681a5.727 5.727 0 00-1.337 2.81l-.555 3.137a.586.586 0 00.575.688c.278 0 .524-.2.574-.483l.555-3.14a4.558 4.558 0 011.06-2.233c.5-.53 1.214-1.088 2.08-1.338l2.141-.649a.13.13 0 01.114.018.133.133 0 01.059.103c.052.726.166 1.528.34 2.387a.584.584 0 101.143-.233 19.122 19.122 0 01-.275-1.748l.899-.273c.072.526.281 1.026.61 1.436.549.688 1.608 1.507 3.537 1.507 1.928 0 2.988-.82 3.537-1.507.331-.414.541-.92.612-1.452l.902.276a24.527 24.527 0 01-.439 2.92l-.554 2.008a11.52 11.52 0 01-.655 1.544.587.587 0 00.517.857c.21 0 .413-.115.517-.315a12.734 12.734 0 00.74-1.755l.564-2.043a26.03 26.03 0 00.512-3.61.133.133 0 01.059-.102.129.129 0 01.114-.018l2.14.649a4.506 4.506 0 013.142 3.574l.554 3.136a.584.584 0 101.149-.204c-.14-.772-.458-2.628-.597-3.355.279.038.56.059.844.059 3.431 0 6.222-2.804 6.222-6.25 0-.094-.002-.188-.006-.282a.587.587 0 00-.608-.56zm-1.485-7.987a5.05 5.05 0 01-1.218 3.305 6.177 6.177 0 00-6.898.736 5.046 5.046 0 01-.7-.648 3 3 0 00.927-2.171 2.34 2.34 0 00-1.336-2.115c.344-.46.597-1.055.738-1.76.074-.365.116-.765.125-1.187a5.022 5.022 0 013.306-1.238c2.788 0 5.056 2.278 5.056 5.078zm-10.027.074c.55.088.972.568.972 1.148a1.83 1.83 0 01-1.157 1.703c.146-.772.18-1.658.185-2.851zM12.776 6.25c0-.502-.06-.99-.173-1.458a5.038 5.038 0 013.673-1.589c2.788 0 5.056 2.278 5.056 5.078 0 .228-.017.455-.047.68-1.834.107-3.498.783-4.754 1.969a3.927 3.927 0 00-1.205-.2 4.59 4.59 0 00-2.804.952 5.083 5.083 0 01-1-1.673 6.235 6.235 0 001.254-3.759zm.099 6.673a3.454 3.454 0 012.478-1.021 2.4 2.4 0 01.768.127l.224 2.19c-.394 1.215-.851 2.135-1.75 2.667-1.167.691-1.82 1.572-2.014 2.736-.643-.517-1.032-1.922-1.032-2.954 0-1.586.459-2.88 1.326-3.745zm-1.326 9.236c0-.58.422-1.06.972-1.148.006 1.193.039 2.08.185 2.851a1.83 1.83 0 01-1.157-1.703zm.372 3.622c0 2.8-2.268 5.078-5.056 5.078-2.788 0-5.056-2.278-5.056-5.078 0-2.8 2.268-5.078 5.056-5.078 1.33 0 2.57.507 3.518 1.432v.023c0 1.082.571 2.032 1.426 2.56.074.347.112.704.112 1.063zm2.954.082c-1.142-1.593-1.189-2.446-1.189-5.454 0-1.153.435-1.881 1.501-2.513 1.033-.612 1.606-1.56 2.006-2.578 2.269 1.957 4.122 2.02 5.637 2.07.995.034 1.78.06 2.55.566 1.053.691 1.483 1.402 1.483 2.455 0 3.009-.047 3.861-1.189 5.454-1.714 2.392-3.682 3.764-5.4 3.764-1.717 0-3.685-1.372-5.4-3.764zm8.027 7.25c-.567.71-1.45 1.07-2.627 1.07-1.177 0-2.061-.36-2.628-1.07a1.813 1.813 0 01-.37-1.335l.21-1.813c.938.545 1.883.834 2.788.834.905 0 1.85-.29 2.787-.834l.21 1.814c.056.484-.079.97-.37 1.335zm3.023-1.903a1.304 1.304 0 00-.323.32l-1.227-.374-.225-1.941c.859-.687 1.695-1.584 2.471-2.667.359-.5.626-.951.826-1.402a2.97 2.97 0 00.795-.182c.262.313.553.598.871.854a6.237 6.237 0 00-1.403 3.948c0 .522.063 1.034.188 1.53l-.86-.26a1.29 1.29 0 00-1.113.174z" fill="#832F34"/><path d="M16.159 37.018a.583.583 0 10-1.117.338 31.07 31.07 0 00.769 2.273.584.584 0 101.085-.43c-.004-.01-.354-.902-.737-2.18zm5.701-13.952l1.55.899a.579.579 0 00.796-.215.587.587 0 00-.213-.8l-.674-.391.674-.391a.587.587 0 00.213-.8.582.582 0 00-.796-.215l-1.55.898a.586.586 0 000 1.015zm-3.234-1.015l-1.55-.898a.582.582 0 00-.796.214.587.587 0 00.213.8l.675.392-.674.39a.587.587 0 00.292 1.094c.099 0 .2-.025.29-.078l1.55-.899a.587.587 0 000-1.015zm2.823 5.097a.585.585 0 00-.584-.585h-1.244a.585.585 0 00-.583.585c0 .324.26.586.583.586h1.244a.585.585 0 00.584-.586zm-2.113-2.088c.271.182.59.273.907.273.318 0 .636-.091.907-.273a.587.587 0 00.162-.812.582.582 0 00-.809-.163c-.148.1-.372.1-.52 0a.582.582 0 00-.809.163.587.587 0 00.162.812zM31.638 6.797a.585.585 0 00.583-.586.585.585 0 00-.583-.586.585.585 0 00-.583.586c0 .324.26.586.583.586zm4.667 0a.585.585 0 00.584-.586.585.585 0 10-1.167 0c0 .324.26.586.583.586zm-2.333 0a.585.585 0 00.583-.586.585.585 0 00-.583-.586.585.585 0 00-.584.586c0 .324.261.586.584.586zM31.56 30.313a.585.585 0 00.584-.586.585.585 0 00-.584-.586.585.585 0 00-.583.586c0 .323.261.585.583.585zm4.667 0a.585.585 0 00.584-.586.585.585 0 00-.584-.586.585.585 0 00-.583.586c0 .323.261.585.583.585zm-2.333 0a.585.585 0 00.583-.586.585.585 0 00-.583-.586.585.585 0 00-.584.586c0 .323.262.585.584.585z" fill="#832F34"/></svg>