<svg width="40" height="40" fill="none" xmlns="http://www.w3.org/2000/svg"><path d="M.695 39.071c.03.068.07.13.12.184.006.006.009.015.015.02a.641.641 0 00.46.194h.01l5.355.059h.007c.338 0 .62-.26.645-.597.298-3.906 2.052-6.201 3.53-7.464 2.7-.285 6.214-.877 7.658-1.84a3.282 3.282 0 001.502-2.995A3.187 3.187 0 0018.425 24a1.048 1.048 0 01-.21-.129c.044-.125.096-.247.155-.366.251-.464.392-.98.41-1.508a1.348 1.348 0 00-.548-1.154 1.525 1.525 0 00-.556-.242c.53-.774.88-1.678.27-2.285a4.771 4.771 0 00-.706-.543c-.283-.194-.81-.55-.828-.747-.004-.045.042-.176.244-.379a3.161 3.161 0 001.13-2.64 2.185 2.185 0 00-1.297-1.62c-.193-.097-.463-.21-.779-.342-1.689-.71-4.832-2.031-5.325-4.993A9.587 9.587 0 006.297.85C6.087.653 5.762.506 1.27.645a.627.627 0 00-.115.027.661.661 0 00-.123.03.603.603 0 00-.104.072.586.586 0 00-.1.069.645.645 0 00-.07.103.652.652 0 00-.064.102.613.613 0 00-.027.134.61.61 0 00-.022.108v37.536a.62.62 0 00.03.151.748.748 0 00.02.094zm5.381-.839l-4.14-.046V31.11a6.423 6.423 0 003.172.663c.533 0 1.055-.03 1.533-.056.421-.023.82-.046 1.172-.046.258 0 .612-.014 1.032-.037a11.936 11.936 0 00-2.769 6.597v.001zM5.583 1.925a8.41 8.41 0 013.53 5.336c.61 3.662 4.316 5.22 6.097 5.969.284.12.526.22.702.308a.968.968 0 01.602.672 2.011 2.011 0 01-.772 1.521 1.763 1.763 0 00-.617 1.413c.076.8.803 1.295 1.388 1.692.168.114.342.233.458.331a5.208 5.208 0 01-1.229 1.725.645.645 0 00.659 1.07 1.798 1.798 0 011.073-.079.272.272 0 01.014.11 2.259 2.259 0 01-.287.957c-.25.531-.717 1.52.646 2.201.526.348.848.931.863 1.562a2 2 0 01-.93 1.84c-1.677 1.119-7.82 1.828-9.965 1.828-.375 0-.797.022-1.244.048-1.668.092-3.726.198-4.635-1.017V1.918c1.586-.04 3.202-.047 3.647.007zm25.01 12.241l-1.812.813a12.71 12.71 0 01-1.053-2.209 6.93 6.93 0 01-.436-2.743c.063-.962.715-2.285 1.77-2.285h.015c.384.02.743.194.997.483.373.388.581.905.58 1.443.01.304-.117.595-.344.795a.38.38 0 01-.447-.013c-.058-.047-.193-.155-.058-.593a.645.645 0 00-1.234-.379c-.294.695-.095 1.5.488 1.98.57.457 1.373.487 1.976.073.572-.428.91-1.101.909-1.816a3.366 3.366 0 00-.938-2.38 2.706 2.706 0 00-1.91-.883h-.03c-1.743 0-2.945 1.806-3.058 3.489a8.219 8.219 0 00.506 3.257c.29.803.654 1.576 1.087 2.312l-1.497.67c-.04-.193-.075-.397-.123-.587a8.205 8.205 0 00-1.386-2.991c-1.032-1.348-3.051-2.184-4.504-1.19a2.701 2.701 0 00-1.105 1.797c-.156.872.038 1.77.54 2.5.396.596 1.05.969 1.763 1.008a1.633 1.633 0 001.604-1.158 1.7 1.7 0 00-.7-1.917.645.645 0 10-.813 1c.354.289.3.452.278.524a.378.378 0 01-.36.259h-.002a1.025 1.025 0 01-.728-.47 2.081 2.081 0 01-.316-1.525c.05-.381.253-.725.562-.955.88-.602 2.162.143 2.752.91a6.937 6.937 0 011.161 2.525c.065.258.12.533.17.809l-3.524 1.58c-.56.251-.85.877-.679 1.468l3.32 11.273c.209.774.565 1.5 1.048 2.14a6.567 6.567 0 004.414 2.457 5.29 5.29 0 014.265 3.048l.129.287a.645.645 0 00.588.383h3.21a.645.645 0 00.587-.91l-.666-1.477a5.236 5.236 0 01.565-5.22 6.557 6.557 0 001.096-4.927 6.247 6.247 0 00-.895-2.204l-6.218-9.978a1.219 1.219 0 00-1.544-.473zm-5.531 3.895c.051.692.063 1.387.035 2.081-.019.468-.07.928-.123 1.416-.025.219-.049.44-.07.66a5.032 5.032 0 00.319 2.587.645.645 0 101.171-.54 3.825 3.825 0 01-.206-1.922c.02-.216.044-.43.064-.645.054-.488.11-.992.13-1.506a18.62 18.62 0 00-.08-2.69l1.983-.89c.143.213.28.423.436.639.302.415.627.803.942 1.179.139.166.278.33.414.498.443.486.752 1.077.9 1.717a.645.645 0 001.273-.202 5.045 5.045 0 00-1.169-2.329c-.141-.172-.284-.342-.425-.512-.316-.375-.613-.73-.888-1.108-.102-.141-.188-.276-.284-.416l1.587-.71 4.258 6.83a4.773 4.773 0 01-1.07-.148 4.499 4.499 0 00-5.34 2.393 3.226 3.226 0 01-3.925 1.762 6.87 6.87 0 00-1.113-.18l-1.935-6.566 3.116-1.398zm12.92 8.99a5.257 5.257 0 01-.881 3.947 6.6 6.6 0 00-.69 6.495l.259.572h-1.794a6.593 6.593 0 00-5.257-3.709 5.267 5.267 0 01-3.54-1.969 4.99 4.99 0 01-.827-1.706l-.975-3.31c.14.027.282.057.431.091.443.116.898.181 1.355.194a4.2 4.2 0 001.753-.403 4.359 4.359 0 002.23-2.185 3.226 3.226 0 013.926-1.76 4.73 4.73 0 002.116.11l1.171 1.88c.35.533.596 1.128.722 1.752z" fill="#832F34"/><path d="M29.871 32.026a2.891 2.891 0 01-1.95-1.082 2.833 2.833 0 01-.425-.921.646.646 0 00-1.24.362c.13.488.348.948.646 1.355a4.185 4.185 0 002.825 1.57.645.645 0 10.144-1.284z" fill="#832F34"/></svg>