<svg width="40" height="40" fill="none" xmlns="http://www.w3.org/2000/svg"><path d="M39.828 38.925L27.647 26.744a6.04 6.04 0 01-1.396-2.17 7.941 7.941 0 00-2.16-3.388.586.586 0 10-.828.828c.848.755 1.533 1.841 1.89 2.972a7.207 7.207 0 001.665 2.586L39 39.754a.585.585 0 10.828-.829zM10.821 22.62a1.08 1.08 0 01-.77-.319L6.608 18.86a.586.586 0 10-.829.828l3.442 3.442c.427.427.995.662 1.599.662h.037a.586.586 0 000-1.172h-.037z" fill="#832F34"/><path d="M26.548 15.628a8.501 8.501 0 004.816 1.489c4.714 0 8.55-3.836 8.55-8.55 0-4.715-3.836-8.551-8.55-8.551-4.715 0-8.55 3.836-8.55 8.55a8.53 8.53 0 002.808 6.33l-3.91 3.91-9.49-9.49a2.25 2.25 0 00-1.601-.663 2.25 2.25 0 00-1.601.663c-.29.257-.604.691-.73 1.138a2.267 2.267 0 00-3.029.156c-.454.39-.822 1.082-.815 1.758a2.26 2.26 0 00-1.829.65c-.727.608-1.02 1.753-.638 2.631a2.25 2.25 0 00-1.163.62l-.153.153a2.25 2.25 0 00-.663 1.6c0 .606.236 1.174.663 1.602l5.073 5.073c-.757.069-1.658.696-1.85 1.559a2.059 2.059 0 00.436 1.866L7.51 31.8a4.868 4.868 0 002.493 1.537l4.871 1.237c1.174.2 2.353 1.638 3.154 2.413l2.825 2.826a.584.584 0 00.829 0 .586.586 0 000-.829l-3.408-3.407c-.833-.89-1.84-1.856-3.111-2.139l-4.872-1.236a3.7 3.7 0 01-1.895-1.17l-3.187-3.677a.876.876 0 01-.188-.805c.27-.938 1.728-.867 2.358-.21l2.453 2.452a.586.586 0 00.828-.829l-9.167-9.168c-.445-.425-.416-1.254.152-1.697a1.094 1.094 0 011.545 0l.645.644a.586.586 0 00.828-.828l-1.368-1.37c-.456-.444-.393-1.271.152-1.697a1.094 1.094 0 011.545 0l6.757 6.757c.427.427.995.662 1.599.662h.072a.586.586 0 000-1.172h-.072a1.08 1.08 0 01-.77-.319l-6.64-6.639c-.455-.445-.392-1.271.153-1.697.206-.207.48-.32.773-.32.291 0 .566.113.772.32l6.639 6.639c.427.427.995.662 1.6.662a.586.586 0 100-1.172 1.08 1.08 0 01-.772-.32l-5.406-5.406c-.445-.425-.416-1.254.153-1.697.206-.206.48-.32.772-.32.292 0 .566.114.772.32l9.49 9.49-.976.976a.586.586 0 10.828.829l5.813-5.812zm-2.563-7.062c0-4.068 3.31-7.378 7.379-7.378 4.068 0 7.378 3.31 7.378 7.378 0 4.069-3.31 7.379-7.378 7.379-4.069 0-7.379-3.31-7.379-7.379z" fill="#832F34"/><path d="M20.41 30.085a.6.6 0 10-.192-1.186.6.6 0 00.192 1.186zm2.74.007a.6.6 0 100-1.202.6.6 0 000 1.202zm-8.33-2.828a.6.6 0 100-1.201.6.6 0 000 1.201zm2.672 0a.6.6 0 100-1.201.6.6 0 000 1.201zm2.968-.028a.6.6 0 10-.276-1.169.6.6 0 00.277 1.17zm2.69.028a.6.6 0 100-1.201.6.6 0 000 1.201zm-8.33-2.828a.6.6 0 100-1.201.6.6 0 000 1.201zm2.672 0a.6.6 0 100-1.201.6.6 0 000 1.201zm2.919-.006a.6.6 0 10-.192-1.186.6.6 0 00.192 1.186zm-2.919-2.821a.6.6 0 100-1.201.6.6 0 000 1.201zM29.375 7.99a2.521 2.521 0 002.518-2.518 2.521 2.521 0 00-2.518-2.518 2.521 2.521 0 00-2.518 2.518 2.521 2.521 0 002.518 2.518zm0-3.865a1.348 1.348 0 010 2.693 1.348 1.348 0 01-1.346-1.346c0-.743.604-1.347 1.346-1.347zm1.582 6.544a2.956 2.956 0 003.55 2.891.586.586 0 10-.236-1.147 1.783 1.783 0 01-2.142-1.744c0-.982.799-1.781 1.78-1.781a1.783 1.783 0 011.75 2.114.586.586 0 101.152.217 2.956 2.956 0 00-2.901-3.503 2.956 2.956 0 00-2.953 2.953zm-3.312-.001a.6.6 0 100 1.202.6.6 0 000-1.201zm6.865-4.894a.6.6 0 100-1.202.6.6 0 000 1.202z" fill="#832F34"/></svg>