<svg width="40" height="38" fill="none" xmlns="http://www.w3.org/2000/svg"><path d="M20 0A26.16 26.16 0 001.507 7.551a.667.667 0 00.986.898c9.743-9.488 25.27-9.488 35.014 0a.667.667 0 00.986-.898A26.16 26.16 0 0020 0zm-4 16.667a4 4 0 108 0 4 4 0 00-8 0zm6.667 0a2.667 2.667 0 11-5.334 0 2.667 2.667 0 015.334 0z" fill="#832F34"/><path d="M40 16.647a1.99 1.99 0 00-.413-1.2C37.387 12.607 29.483 3.333 20 3.333S2.613 12.608.417 15.451c-.265.344-.41.765-.414 1.2v.019c0 .006.004.01.004.017.002.434.148.856.413 1.2 1.473 1.905 5.513 6.698 10.871 9.654a26.983 26.983 0 01-2.373-.823.667.667 0 00-.496 1.239A29.475 29.475 0 0020 30a29.475 29.475 0 0011.581-2.047.667.667 0 10-.496-1.24c-.791.318-1.578.588-2.373.824 5.359-2.956 9.4-7.75 10.87-9.654a1.98 1.98 0 00.415-1.2c0-.006.003-.011.003-.017v-.019zM20 4.667c6.415 0 12.133 4.638 15.61 8.236A31.944 31.944 0 0025.493 9.18c-.008 0-.017 0-.025-.004a29.679 29.679 0 00-10.96.004A31.936 31.936 0 004.39 12.903C7.867 9.305 13.585 4.667 20 4.667zm8 12a8 8 0 11-13.027-6.214 28.133 28.133 0 0110.054 0A7.952 7.952 0 0128 16.667zm-26.646.124a7.783 7.783 0 011.356-1.2c-.027.39-.043.768-.043 1.076a12.8 12.8 0 00.2 2.096c-.59-.68-1.06-1.266-1.393-1.696a.647.647 0 01-.12-.276zM20 28.667c-6.231 0-11.806-4.376-15.305-7.925A15.733 15.733 0 014 16.667c.01-.685.055-1.368.137-2.047a30.933 30.933 0 018.477-3.647 9.333 9.333 0 1014.772 0 30.935 30.935 0 018.48 3.647c.081.68.126 1.363.134 2.047a15.733 15.733 0 01-.695 4.075c-3.498 3.55-9.074 7.925-15.305 7.925zm17.133-9.904a12.79 12.79 0 00.2-2.096c0-.308-.016-.685-.043-1.075a7.81 7.81 0 011.356 1.2.651.651 0 01-.118.277 38.565 38.565 0 01-1.395 1.694zm-16.835 12.64a.666.666 0 00-.895.299l-1.333 2.667a.667.667 0 00.597.964h1.588l-.852 1.702a.667.667 0 001.194.596l1.333-2.666a.667.667 0 00-.597-.965h-1.588l.855-1.702a.666.666 0 00-.302-.895zM5.04 31.69a.667.667 0 00.26-1.104l-1.123-1.123 1.805-.6a.668.668 0 10-.422-1.267l-2.827.943a.667.667 0 00-.26 1.104l1.123 1.123-1.805.6a.667.667 0 00.421 1.267l2.827-.943zm33.17-.323l-1.805-.6 1.124-1.123a.667.667 0 00-.261-1.103L34.44 27.6a.667.667 0 10-.422 1.267l1.805.6-1.123 1.119a.666.666 0 00.26 1.104l2.83.943a.667.667 0 10.42-1.267v.001z" fill="#832F34"/></svg>