<svg width="35" height="38" fill="none" xmlns="http://www.w3.org/2000/svg"><path d="M32.636 32.906l-2.793-1.11a.557.557 0 00-.408 1.035l2.8 1.113c.835.32 1.003 1.108.893 1.686-.108.571-.547 1.233-1.43 1.233h-.023c-.943-.003-2.065.003-3.252.01-5.915.033-14.015.08-18.364-.81a.557.557 0 00-.189-.006l-2.922.42a4.378 4.378 0 01-4.01-1.545 4.46 4.46 0 01-.892-3.942l2.027-7.98a.559.559 0 00.01-.233C4.06 22.644 1.79 9.294 2.13.58A.554.554 0 101.023.535C.697 8.927 2.746 21.497 2.97 22.849L.972 30.714a5.58 5.58 0 001.117 4.932 5.478 5.478 0 005.016 1.932l2.828-.405c3.58.713 9.468.827 14.71.827 1.319 0 2.596-.007 3.786-.014a413.794 413.794 0 013.276-.01c1.454 0 2.309-1.07 2.512-2.137.205-1.08-.206-2.407-1.58-2.933z" fill="#832F34"/><path d="M17.994 25.588l8.892 6.213a.55.55 0 00.77-.139.558.558 0 00-.137-.774l-8.892-6.214a4.016 4.016 0 01-1.712-3.29V.556a.555.555 0 10-1.108 0v20.826a5.13 5.13 0 002.187 4.205zm-9.726 6.139a1.467 1.467 0 01-1.463-1.469.555.555 0 10-1.108 0 2.58 2.58 0 002.57 2.582.555.555 0 000-1.113zM5.034 14.676h1.228v2.594c0 1.013.82 1.837 1.829 1.837.397 0 .72.324.72.723v2.061c0 1.013.82 1.837 1.829 1.837a1.835 1.835 0 001.829-1.837v-7.215h1.197c.306 0 .554-.25.554-.557a.555.555 0 00-.554-.556H5.034a.555.555 0 00-.554.556c0 .308.248.557.554.557zm6.326 0v7.215a.723.723 0 01-.72.724.723.723 0 01-.72-.724v-2.06a1.836 1.836 0 00-1.83-1.838.723.723 0 01-.72-.723v-2.594h3.99z" fill="#832F34"/><path d="M22.604 11.386v2.47h-1.007a.555.555 0 00-.554.556c0 .308.248.557.554.557h10.89c.306 0 .554-.25.554-.557a.555.555 0 00-.554-.556h-8.775v-2.47a3.345 3.345 0 012.776-3.298v.956a.555.555 0 101.108 0v-.956a3.345 3.345 0 012.776 3.298v.42a.555.555 0 101.108 0v-.42c0-1.677-.927-3.14-2.294-3.901a4.464 4.464 0 002.294-3.902v-2.47h1.007a.555.555 0 000-1.113h-10.89a.555.555 0 00-.554.557c0 .307.248.556.554.556h1.007v2.47c0 1.677.927 3.14 2.294 3.901a4.464 4.464 0 00-2.294 3.902zm4.438-6.462a1.34 1.34 0 01-1.335-1.34v-.467h2.67v.466c0 .74-.599 1.34-1.335 1.34zm-3.33-1.34v-2.47h6.66v2.47a3.345 3.345 0 01-2.776 3.297v-.908a2.455 2.455 0 001.89-2.39V2.561a.555.555 0 00-.555-.557h-3.778a.555.555 0 00-.554.557v1.022c0 1.162.808 2.137 1.889 2.39v.908a3.345 3.345 0 01-2.776-3.298z" fill="#832F34"/><path d="M28.93 11.852h-3.777a.555.555 0 00-.554.556c0 .308.248.557.554.557h3.778a.555.555 0 000-1.113z" fill="#832F34"/></svg>