<svg width="37" height="34" fill="none" xmlns="http://www.w3.org/2000/svg"><path d="M10.517 30.75c1.331 0 2.126-.934 2.126-2.5 0-.939-.317-1.411-.596-1.828-.319-.476-.649-.967-.649-2.547 0-8.522 6.083-19.585 6.145-19.696.387-.698-.63-1.315-1.065-.645-.36.555-8.813 13.698-8.813 22.84 0 3.95 1.995 4.376 2.852 4.376zm.753-14.365c-.663 2.484-1.116 5.067-1.116 7.49 0 1.961.477 2.673.86 3.245.24.357.384.572.384 1.13 0 1.25-.573 1.25-.881 1.25-1.329 0-1.608-1.7-1.608-3.125 0-3.036 1.022-6.61 2.361-9.99z" fill="#832F34"/><path d="M35.044 23.25c-.99-.053-2.214.172-5.204-.408-1.135-.221-1.687-.322-2.312-.06-1.025.45-1.572 1.737-.755 2.948 1.732 2.595.62 6.27-2.569 6.27-.96 0-4.094-.406-4.094-5.625 0-.383.047-.72.093-1.046.166-1.18.09-1.977-1.158-2.546-.476-.208-.78-.176-1.333-.104-2.147.276-2.922-.294-3.874.105a1.919 1.919 0 00-1.092 2.242c.238.885 1.141 1.324 1.141 3.224 0 2.768-1.817 3.75-3.372 3.75-3.235 0-4.459-3.389-4.003-6.67.124-.89.265-1.898-1.156-2.547-.696-.305-1.512-.11-2.552.148-.63.157-1.283.319-1.984.319-.823 0-.824 1.25 0 1.25.853 0 1.613-.189 2.283-.355.382-.095 1.408-.368 1.747-.22.566.258.548.388.43 1.232-.708 5.076 2.058 8.093 5.235 8.093 2.224 0 4.617-1.565 4.617-5 0-1.696-.66-2.685-1.022-3.227-.605-.892.463-1.204.4-1.148.64 0 1.554.277 3.362.044.455-.06.513-.062.668.006.582.265.544.42.431 1.229a8.33 8.33 0 00-.106 1.22c0 6.683 4.793 6.876 5.34 6.876 4.152 0 5.909-4.758 3.594-8.227-.605-.895.48-1.213.4-1.148.404 0 .845.085 1.405.194 3.205.623 4.38.372 5.44.43.824 0 .823-1.25 0-1.25z" fill="#832F34"/><path d="M35.248.913c-.484.443-11.889 10.946-14.215 19.781-1.003 3.814.792 4.744 1.61 4.966 1.38.377 2.307-.46 2.677-1.863.238-.905.057-1.443-.104-1.918-.183-.544-.373-1.105.03-2.634 2.169-8.237 10.783-17.346 10.87-17.438.55-.578-.28-1.432-.868-.894zM24.038 22.28c.138.41.221.656.079 1.198-.192.73-.479 1.16-1.147.977-1.264-.344-1.097-2.06-.734-3.44.765-2.906 2.62-6.062 4.732-8.958-1.453 2.572-3.87 7.437-2.93 10.223z" fill="#832F34"/><path d="M28.824 19.445c-.073.825 1.167.941 1.24.11a10.611 10.611 0 013.8-7.222l-.654 1.97c-.26.783.919 1.181 1.18.396l1.244-3.75a.624.624 0 00-.692-.815l-3.733.625c-.81.136-.611 1.366.204 1.233l1.174-.197a11.857 11.857 0 00-3.763 7.65z" fill="#832F34"/></svg>