<svg width="48" height="48" fill="none" xmlns="http://www.w3.org/2000/svg"><circle cx="24" cy="24" r="23.5" stroke="#9D252F" stroke-opacity=".5"/><path d="M38 24c0-3.74-1.457-7.255-4.1-9.9A13.906 13.906 0 0024 10c-3.298 0-6.42 1.134-8.925 3.213a.532.532 0 00-.213.125l-1.523 1.523a.523.523 0 00-.125.213A13.897 13.897 0 0010 24c0 3.74 1.456 7.256 4.1 9.9A13.91 13.91 0 0024 38c3.298 0 6.42-1.134 8.925-3.214a.526.526 0 00.213-.125l1.523-1.523a.52.52 0 00.125-.213A13.891 13.891 0 0038 24zm-4.861-9.139A12.842 12.842 0 0136.922 24c0 2.907-.956 5.666-2.716 7.923l-18.129-18.13A12.819 12.819 0 0124 11.078c3.452 0 6.697 1.344 9.138 3.784zm0 18.277c-.128.127-.258.25-.39.372L14.49 15.25a11.387 11.387 0 01.762-.761L33.51 32.748c-.121.132-.244.263-.371.39zm-18.278 0A12.844 12.844 0 0111.078 24c0-2.907.957-5.666 2.715-7.923l18.13 18.13A12.813 12.813 0 0124 36.922a12.841 12.841 0 01-9.138-3.784z" fill="#9D252F"/></svg>