<svg width="48" height="48" fill="none" xmlns="http://www.w3.org/2000/svg"><circle cx="24" cy="24" r="23.5" stroke="#9D252F" stroke-opacity=".5"/><path d="M35.368 33.613a.597.597 0 01-.414-.169l-4.952-4.952a.581.581 0 11.823-.822l4.951 4.952a.58.58 0 01-.408.991z" fill="#9D252F"/><path d="M30.416 28.66a.587.587 0 01-.583-.553.58.58 0 01.554-.607l6.993-.315a.58.58 0 11.053 1.16l-6.988.316h-.029z" fill="#9D252F"/><path d="M30.731 35.654a.587.587 0 01-.583-.554l-.315-6.993a.58.58 0 111.16-.052l.316 6.993a.58.58 0 01-.554.606h-.024z" fill="#9D252F"/><path d="M31.238 27.838a.585.585 0 01-.566-.73A9.976 9.976 0 0031 24.58c0-5.465-4.45-9.916-9.916-9.916-.361 0-.734.023-1.096.058a.583.583 0 01-.642-.513.583.583 0 01.514-.641c.408-.047.822-.07 1.224-.07 6.113 0 11.083 4.97 11.083 11.082 0 .956-.123 1.907-.362 2.829a.585.585 0 01-.566.431zM21.084 35.66c-6.112 0-11.082-4.97-11.082-11.082 0-2.951 1.149-5.728 3.225-7.816a.58.58 0 11.823.823 9.863 9.863 0 00-2.882 6.993c0 5.465 4.45 9.916 9.916 9.916a9.873 9.873 0 004.888-1.289.583.583 0 01.572 1.015 11 11 0 01-5.46 1.44z" fill="#9D252F"/><path d="M14.43 17.836c-.666 0-1.33-.146-1.943-.444a4.447 4.447 0 01-2.485-3.68.572.572 0 01.257-.525 4.466 4.466 0 014.432-.315 4.49 4.49 0 011.739 1.51c.18.269.11.63-.158.811a.583.583 0 01-.81-.157 3.342 3.342 0 00-1.284-1.114 3.287 3.287 0 00-2.969.052A3.283 3.283 0 0013 16.342c1.05.508 2.298.42 3.272-.233a.583.583 0 11.653.968 4.483 4.483 0 01-2.496.759z" fill="#9D252F"/><path d="M16.599 17.176a.582.582 0 01-.485-.256 4.466 4.466 0 01-.315-4.433 4.44 4.44 0 013.68-2.485.572.572 0 01.526.257 4.466 4.466 0 01.315 4.432 4.447 4.447 0 01-3.68 2.485h-.041zm2.618-5.972a3.283 3.283 0 00-2.368 1.79 3.286 3.286 0 00.053 2.97 3.283 3.283 0 002.368-1.792 3.27 3.27 0 00-.053-2.969zm11.199 24.45a7.561 7.561 0 01-5.36-2.216.581.581 0 010-.823l9.898-9.898a.58.58 0 01.414-.169.6.6 0 01.414.17c2.957 2.956 2.957 7.768 0 10.72a7.559 7.559 0 01-5.366 2.216zm-4.106-2.648c2.52 2.1 6.282 1.972 8.644-.397a6.427 6.427 0 00.396-8.643l-9.04 9.04zm-4.643-.263c-4.823 0-8.749-3.925-8.749-8.749 0-.32.263-.583.584-.583.32 0 .583.263.583.583a7.59 7.59 0 007.583 7.583c.32 0 .583.263.583.583a.586.586 0 01-.583.584z" fill="#9D252F"/></svg>