<svg width="48" height="48" fill="none" xmlns="http://www.w3.org/2000/svg"><circle cx="24" cy="24" r="23.5" stroke="#9D252F" stroke-opacity=".5"/><mask id="path-2-outside-1_1_130" maskUnits="userSpaceOnUse" x="12" y="9" width="23" height="30" fill="#000"><path fill="#fff" d="M12 9h23v30H12z"/><path d="M34.794 34.053c-.283-1.758-1.336-3.31-2.888-4.259-1.512-.926-3.27-1.619-4.178-1.948-.239-.09-.441-.161-.6-.216.004-.06.007-.114.007-.165v-.633a5.393 5.393 0 001.927-3.91 1.448 1.448 0 001.303-1.439c0-.38-.15-.723-.389-.982.55-1.589.548-2.936-.02-4.002-.525-.988-1.396-1.471-1.903-1.68.48-1.036.17-2.006.156-2.05a.328.328 0 00-.57-.101c-.27.342-.568.535-.827.642.884-1.542.658-2.968.647-3.036a.328.328 0 00-.606-.113c-.845 1.417-1.295 1.878-1.674 2.112.075-.753-.272-1.471-.292-1.512a.328.328 0 00-.616.077c-.144.684-.35 1.041-4.027 3.017-3.527 1.897-2.735 5.496-2.384 6.616a1.439 1.439 0 00-.423 1.012c0 .749.569 1.36 1.294 1.438a5.246 5.246 0 001.615 3.659c.102.097.209.187.317.275v.61c0 .05.003.108.007.165a21.202 21.202 0 00-.597.216c-.915.334-2.67 1.03-4.181 1.948-1.553.953-2.606 2.505-2.888 4.259-.02.125.034.25.138.322 3.5 2.417 7.06 3.625 10.655 3.625 3.593 0 7.219-1.207 10.854-3.621a.328.328 0 00.143-.326zm-5.72-11.794v-1.556a.797.797 0 01.635.78.8.8 0 01-.634.776zm-8.519-7.826c2.483-1.334 3.502-1.984 3.967-2.573.031.294.001.616-.185.868a.329.329 0 00.422.483c.583-.318 1.02-.27 2.013-1.704a4.53 4.53 0 01-.923 2.057.328.328 0 00.226.53c.04.004.822.07 1.59-.53.002.349-.07.808-.363 1.259a.328.328 0 00.198.498c.012.003 1.254.315 1.877 1.487.46.864.467 1.98.034 3.316a1.432 1.432 0 00-.495-.093h-.012c-.573-1.45-1.887-2.855-1.949-2.92a.328.328 0 00-.517.05c-.476.757-2.51.856-4.303.943-.337.016-.674.033-1.006.053-1.198.073-2.021.744-2.346 1.883a1.52 1.52 0 00-.345.072c-.324-1.14-.82-4.1 2.118-5.68v.001zm-2.461 7.05c0-.263.12-.498.338-.65a.782.782 0 01.293-.127v1.557a.796.796 0 01-.631-.78zm1.287 1.31v-2.477c.23-.939.832-1.445 1.788-1.504.329-.02.663-.036.998-.052 1.9-.093 3.707-.18 4.551-.927.448.522 1.391 1.712 1.7 2.796v2.024c0 1.536-.704 2.899-1.8 3.755-.018.014-.037.026-.053.044-.69.523-1.53.847-2.447.889a4.446 4.446 0 01-3.32-1.236 4.53 4.53 0 01-1.417-3.311zm4.768 5.203a5.004 5.004 0 002.33-.697v.167c0 .044-.01.227-.03.31-.041.166.08.347.244.4.175.059.337.114.534.185-.45 1.662-1.965 2.409-3.326 2.409-1.36 0-2.876-.748-3.327-2.41.183-.066.372-.132.556-.192a.328.328 0 00.219-.392 2.13 2.13 0 01-.03-.31v-.16c.857.499 1.828.74 2.83.69zm-10.46 5.958c.297-1.481 1.216-2.785 2.544-3.6 1.293-.785 2.779-1.405 3.725-1.764.56 1.945 2.392 2.836 3.943 2.836 1.603 0 3.387-.881 3.944-2.837.942.355 2.425.973 3.718 1.765a5.503 5.503 0 012.545 3.596c-6.905 4.509-13.774 4.51-20.42.004z"/></mask><path d="M34.794 34.053c-.283-1.758-1.336-3.31-2.888-4.259-1.512-.926-3.27-1.619-4.178-1.948-.239-.09-.441-.161-.6-.216.004-.06.007-.114.007-.165v-.633a5.393 5.393 0 001.927-3.91 1.448 1.448 0 001.303-1.439c0-.38-.15-.723-.389-.982.55-1.589.548-2.936-.02-4.002-.525-.988-1.396-1.471-1.903-1.68.48-1.036.17-2.006.156-2.05a.328.328 0 00-.57-.101c-.27.342-.568.535-.827.642.884-1.542.658-2.968.647-3.036a.328.328 0 00-.606-.113c-.845 1.417-1.295 1.878-1.674 2.112.075-.753-.272-1.471-.292-1.512a.328.328 0 00-.616.077c-.144.684-.35 1.041-4.027 3.017-3.527 1.897-2.735 5.496-2.384 6.616a1.439 1.439 0 00-.423 1.012c0 .749.569 1.36 1.294 1.438a5.246 5.246 0 001.615 3.659c.102.097.209.187.317.275v.61c0 .05.003.108.007.165a21.202 21.202 0 00-.597.216c-.915.334-2.67 1.03-4.181 1.948-1.553.953-2.606 2.505-2.888 4.259-.02.125.034.25.138.322 3.5 2.417 7.06 3.625 10.655 3.625 3.593 0 7.219-1.207 10.854-3.621a.328.328 0 00.143-.326zm-5.72-11.794v-1.556a.797.797 0 01.635.78.8.8 0 01-.634.776zm-8.519-7.826c2.483-1.334 3.502-1.984 3.967-2.573.031.294.001.616-.185.868a.329.329 0 00.422.483c.583-.318 1.02-.27 2.013-1.704a4.53 4.53 0 01-.923 2.057.328.328 0 00.226.53c.04.004.822.07 1.59-.53.002.349-.07.808-.363 1.259a.328.328 0 00.198.498c.012.003 1.254.315 1.877 1.487.46.864.467 1.98.034 3.316a1.432 1.432 0 00-.495-.093h-.012c-.573-1.45-1.887-2.855-1.949-2.92a.328.328 0 00-.517.05c-.476.757-2.51.856-4.303.943-.337.016-.674.033-1.006.053-1.198.073-2.021.744-2.346 1.883a1.52 1.52 0 00-.345.072c-.324-1.14-.82-4.1 2.118-5.68v.001zm-2.461 7.05c0-.263.12-.498.338-.65a.782.782 0 01.293-.127v1.557a.796.796 0 01-.631-.78zm1.287 1.31v-2.477c.23-.939.832-1.445 1.788-1.504.329-.02.663-.036.998-.052 1.9-.093 3.707-.18 4.551-.927.448.522 1.391 1.712 1.7 2.796v2.024c0 1.536-.704 2.899-1.8 3.755-.018.014-.037.026-.053.044-.69.523-1.53.847-2.447.889a4.446 4.446 0 01-3.32-1.236 4.53 4.53 0 01-1.417-3.311zm4.768 5.203a5.004 5.004 0 002.33-.697v.167c0 .044-.01.227-.03.31-.041.166.08.347.244.4.175.059.337.114.534.185-.45 1.662-1.965 2.409-3.326 2.409-1.36 0-2.876-.748-3.327-2.41.183-.066.372-.132.556-.192a.328.328 0 00.219-.392 2.13 2.13 0 01-.03-.31v-.16c.857.499 1.828.74 2.83.69zm-10.46 5.958c.297-1.481 1.216-2.785 2.544-3.6 1.293-.785 2.779-1.405 3.725-1.764.56 1.945 2.392 2.836 3.943 2.836 1.603 0 3.387-.881 3.944-2.837.942.355 2.425.973 3.718 1.765a5.503 5.503 0 012.545 3.596c-6.905 4.509-13.774 4.51-20.42.004z" fill="#9D252F"/><path d="M34.794 34.053c-.283-1.758-1.336-3.31-2.888-4.259-1.512-.926-3.27-1.619-4.178-1.948-.239-.09-.441-.161-.6-.216.004-.06.007-.114.007-.165v-.633a5.393 5.393 0 001.927-3.91 1.448 1.448 0 001.303-1.439c0-.38-.15-.723-.389-.982.55-1.589.548-2.936-.02-4.002-.525-.988-1.396-1.471-1.903-1.68.48-1.036.17-2.006.156-2.05a.328.328 0 00-.57-.101c-.27.342-.568.535-.827.642.884-1.542.658-2.968.647-3.036a.328.328 0 00-.606-.113c-.845 1.417-1.295 1.878-1.674 2.112.075-.753-.272-1.471-.292-1.512a.328.328 0 00-.616.077c-.144.684-.35 1.041-4.027 3.017-3.527 1.897-2.735 5.496-2.384 6.616a1.439 1.439 0 00-.423 1.012c0 .749.569 1.36 1.294 1.438a5.246 5.246 0 001.615 3.659c.102.097.209.187.317.275v.61c0 .05.003.108.007.165a21.202 21.202 0 00-.597.216c-.915.334-2.67 1.03-4.181 1.948-1.553.953-2.606 2.505-2.888 4.259-.02.125.034.25.138.322 3.5 2.417 7.06 3.625 10.655 3.625 3.593 0 7.219-1.207 10.854-3.621a.328.328 0 00.143-.326h0zm-5.72-11.794v-1.556a.797.797 0 01.635.78.8.8 0 01-.634.776zm-8.519-7.826c2.483-1.334 3.502-1.984 3.967-2.573.031.294.001.616-.185.868a.329.329 0 00.422.483c.583-.318 1.02-.27 2.013-1.704a4.53 4.53 0 01-.923 2.057.328.328 0 00.226.53c.04.004.822.07 1.59-.53.002.349-.07.808-.363 1.259a.328.328 0 00.198.498c.012.003 1.254.315 1.877 1.487.46.864.467 1.98.034 3.316a1.432 1.432 0 00-.495-.093h-.012c-.573-1.45-1.887-2.855-1.949-2.92a.328.328 0 00-.517.05c-.476.757-2.51.856-4.303.943-.337.016-.674.033-1.006.053-1.198.073-2.021.744-2.346 1.883a1.52 1.52 0 00-.345.072c-.324-1.14-.82-4.1 2.118-5.68v.001zm-2.461 7.05c0-.263.12-.498.338-.65a.782.782 0 01.293-.127v1.557a.796.796 0 01-.631-.78h0zm1.287 1.31v-2.477c.23-.939.832-1.445 1.788-1.504.329-.02.663-.036.998-.052 1.9-.093 3.707-.18 4.551-.927.448.522 1.391 1.712 1.7 2.796v2.024c0 1.536-.704 2.899-1.8 3.755-.018.014-.037.026-.053.044-.69.523-1.53.847-2.447.889a4.446 4.446 0 01-3.32-1.236 4.53 4.53 0 01-1.417-3.311h0zm4.768 5.203a5.004 5.004 0 002.33-.697v.167c0 .044-.01.227-.03.31-.041.166.08.347.244.4.175.059.337.114.534.185-.45 1.662-1.965 2.409-3.326 2.409-1.36 0-2.876-.748-3.327-2.41.183-.066.372-.132.556-.192a.328.328 0 00.219-.392 2.13 2.13 0 01-.03-.31v-.16c.857.499 1.828.74 2.83.69h0zm-10.46 5.958c.297-1.481 1.216-2.785 2.544-3.6 1.293-.785 2.779-1.405 3.725-1.764.56 1.945 2.392 2.836 3.943 2.836 1.603 0 3.387-.881 3.944-2.837.942.355 2.425.973 3.718 1.765a5.503 5.503 0 012.545 3.596c-6.905 4.509-13.774 4.51-20.42.004h0z" stroke="#9D252F" stroke-width=".2" mask="url(#path-2-outside-1_1_130)"/><path d="M24.58 22.964h0a.378.378 0 010 .535.96.96 0 01-.68.28l.68-.815zm0 0a.378.378 0 00-.535 0 .206.206 0 01-.291 0 .378.378 0 00-.535 0h0m1.361 0h-1.36m0 0a.378.378 0 000 .535h0m0-.535v.535m0 0a.961.961 0 00.68.28l-.68-.28zm-.69-2.057a.327.327 0 01-.448-.123l-.043.025s0 0 0 0a.372.372 0 00-.33-.179.372.372 0 00-.329.179l-.016.028h-.001l-.596-.378c.195-.344.548-.548.943-.548.395 0 .747.205.943.548a.328.328 0 01-.123.448zm0 0l.025.043s0 0 0 0 0 0 0 0l-.025-.043zm-1.806-.473a.378.378 0 00.14.516l-.14-.515zm6.352.001h0a.378.378 0 11-.657.374m.657-.375l-.613.35m.613-.35a1.123 1.123 0 00-.986-.573c-.413 0-.782.214-.987.573l.044.025-.043-.025a.377.377 0 00.14.516l.01.006h.001m1.821-.521l-1.82.521m1.163-.147l.044-.025m-.044.025s0 0 0 0l.044-.025m-.044.025a.372.372 0 00-.33-.179.372.372 0 00-.329.179m.703-.025c-.155-.272-.591-.272-.746 0m.043.025s0 0 0 0l-.043-.025m.043.025a.378.378 0 01-.505.147m.505-.147l-.043-.025m0 0l-.462.172m0 0h.012l.002-.05h0l-.002.006h0l-.023.038s0 0 0 0a.284.284 0 00.011.006z" fill="#9D252F" stroke="#9D252F" stroke-width=".1"/><path d="M22.094 23.787h0a.38.38 0 00-.37.024.395.395 0 00-.182.332A2.36 2.36 0 0023.9 26.5c1.3 0 2.357-1.057 2.357-2.377a.38.38 0 00-.181-.323h0a.38.38 0 00-.37-.013l-.007.004c-1.214.624-2.39.623-3.605-.004zm1.806 1.957c-.667 0-1.241-.41-1.481-.993a4.345 4.345 0 002.962 0c-.24.582-.814.993-1.481.993z" fill="#9D252F" stroke="#9D252F" stroke-width=".1"/></svg>