<svg width="48" height="48" fill="none" xmlns="http://www.w3.org/2000/svg"><circle cx="24" cy="24" r="23.5" stroke="#9D252F" stroke-opacity=".5"/><path d="M37.931 25.231c.035-.409.06-.82.06-1.23 0-.432-.026-.862-.066-1.291-.006-.073-.011-.148-.02-.221a14.168 14.168 0 00-.183-1.203l-.048-.225c-.026-.119-.047-.24-.076-.36l-.085-.356h-.024c-1.593-5.872-6.909-10.22-13.252-10.328V10l-.474.008c-.209.004-.414.028-.621.04-.225.014-.451.02-.674.045-.254.027-.504.074-.756.115-.202.033-.406.059-.605.1-.276.058-.547.137-.819.211-.168.047-.339.084-.503.136-.285.09-.564.2-.843.309-.145.056-.294.104-.437.166-.035.015-.072.025-.107.04l-.28.122v.024a14.037 14.037 0 00-7.618 9.029h-.022l-.086.357c-.029.12-.05.24-.076.36a14.017 14.017 0 00-.231 1.427c-.008.073-.013.148-.02.22-.04.43-.065.86-.065 1.292a14.046 14.046 0 00.1 1.607c.014.125.022.251.04.376l.057.4h.018a13.883 13.883 0 003.883 7.513 13.986 13.986 0 004.02 2.796v.017l.28.122c.023.01.047.016.07.027.297.127.6.236.907.343.13.046.26.098.392.14.276.087.558.157.839.226.17.042.336.09.507.127.254.053.511.088.768.127.2.03.4.066.602.088.246.026.496.035.745.05.178.008.355.031.535.034l.474.006v-.016a13.897 13.897 0 009.655-4.087 13.883 13.883 0 003.885-7.512h.018l.057-.4c.017-.125.025-.251.04-.377.013-.125.027-.25.039-.377zm-.929-.056c-.006.063-.009.126-.016.188-.003.03-.01.06-.013.09H23.305V37.03c-.116-.007-.234-.01-.35-.018a11.432 11.432 0 01-1.21-.154c-.155-.026-.308-.05-.461-.082-.242-.051-.48-.115-.718-.18-.15-.04-.304-.075-.454-.121a12.668 12.668 0 01-.801-.287c-.087-.033-.175-.059-.26-.094V25.453h-8.033c-.003-.03-.01-.06-.013-.09-.007-.062-.01-.125-.016-.188-.034-.388-.058-.78-.058-1.175 0-.452.025-.905.072-1.355.011-.113.036-.221.05-.333.043-.33.088-.66.156-.987.003-.017.01-.032.012-.049h7.83v-9.36a12.975 12.975 0 012.228-.69c.114-.024.23-.04.345-.063.28-.05.56-.095.847-.129.15-.017.302-.03.454-.042.125-.01.253-.013.38-.02v10.305h13.463c.005.017.01.032.013.049.068.326.113.656.156.986.015.112.04.22.051.334.046.45.07.902.07 1.355 0 .394-.022.786-.056 1.174zm-.473-4.83H24.237V10.95c5.826.107 10.727 4.041 12.292 9.395zm-18.41-7.995v7.995h-6.657a13.107 13.107 0 016.657-7.995zm-3.362 20.888a12.97 12.97 0 01-3.601-6.854h6.963v9.278a13.103 13.103 0 01-3.362-2.424zm18.476 0a12.97 12.97 0 01-8.997 3.815V26.384h12.599a12.97 12.97 0 01-3.603 6.854z" fill="#9D252F"/></svg>