<svg width="183" height="61" fill="none" xmlns="http://www.w3.org/2000/svg"><path d="M17.1 21v19.8H13V21h4.1zm5.4 3.6v1.5c.3-.6.7-1.1 1.1-1.4.4-.3.9-.5 1.4-.5 1.1 0 1.9.6 2.5 1.8.3-.6.7-1.1 1.1-1.4.4-.3.9-.5 1.4-.5.7 0 1.2.2 1.7.6.4.4.7.9.8 1.5.1.6.2 1.5.2 2.9v11.5h-3.8V30.2c0-1.4 0-2.2-.1-2.6-.1-.3-.2-.5-.5-.5s-.5.2-.5.5c-.1.3-.1 1.2-.1 2.6v10.6h-3.8V30.5c0-1.6 0-2.5-.1-2.9-.1-.4-.2-.5-.5-.5-.2 0-.3.1-.4.3-.3.2-.4.4-.4.6v12.7h-3.9V24.6h3.9zm15.5 0l-.1 1.5c.3-.6.7-1.1 1.1-1.4.4-.3.9-.5 1.4-.5 1.1 0 1.9.6 2.5 1.8.4-.5.7-1 1.1-1.3.4-.3.9-.5 1.4-.5.7 0 1.2.2 1.7.6.4.4.7.9.8 1.5.1.6.2 1.5.2 2.9v11.5h-3.8V30.2c0-1.4 0-2.2-.1-2.6-.1-.3-.2-.5-.5-.5s-.5.2-.5.5c-.2.4-.2 1.2-.2 2.6v10.6h-3.8V30.5c0-1.6 0-2.5-.1-2.9-.1-.4-.2-.5-.5-.5-.2 0-.3.1-.4.3-.2.2-.3.4-.3.6v12.7h-3.8V24.6H38zm20.5 0v16.2h-4l.1-1.3c-.3.5-.6 1-1 1.2-.4.2-.9.4-1.4.4-.6 0-1.1-.1-1.5-.4-.4-.3-.7-.6-.9-1-.2-.4-.3-.9-.3-1.3 0-.5-.1-1.4-.1-2.8v-11h3.9v11c0 1.3 0 2 .1 2.2.1.2.2.4.5.4s.5-.1.5-.4c0-.3.1-1 .1-2.4V24.6h4zm5.4 0l-.1 1.5c.3-.6.6-1 1-1.3.4-.3.9-.4 1.4-.4.7 0 1.2.2 1.7.6.4.4.7.9.8 1.5.3.5.3 1.5.3 2.9v11.4h-3.9V29.5c0-1.1 0-1.8-.1-2-.1-.2-.2-.4-.5-.4s-.5.1-.5.4c-.1.3-.1 1-.1 2.3v10.9H60V24.6h3.9zm15.4 5.7v4c0 1.5-.1 2.5-.2 3.2-.1.7-.4 1.3-.8 1.9-.4.6-.9 1-1.5 1.3-.6.3-1.3.4-2.1.4-.9 0-1.6-.1-2.2-.4-.6-.2-1.1-.6-1.4-1.1-.3-.5-.6-1.1-.7-1.8-.1-.7-.2-1.7-.2-3.1v-4.1c0-1.5.1-2.7.4-3.5.3-.8.7-1.5 1.4-2s1.5-.8 2.6-.8c.9 0 1.6.2 2.3.5.6.3 1.1.8 1.5 1.3.3.5.6 1.1.7 1.6.1.5.2 1.4.2 2.6zM75.4 29c0-.8 0-1.4-.1-1.6-.1-.2-.2-.3-.5-.3s-.4.1-.5.3c-.1.2-.1.7-.1 1.6v7.3c0 .8 0 1.3.1 1.5.1.2.2.3.5.3.2 0 .4-.1.5-.3.1-.2.1-.7.1-1.4V29zm15.7-8v4L88 36.9h3.1v4h-7.6V38l3.2-13h-2.8v-4h7.2zm5 0v2.6H92V21h4.1zm0 3.6v16.2H92V24.6h4.1zm5.5 0l-.1 1.5c.3-.6.6-1 1-1.3.4-.3.9-.4 1.4-.4.7 0 1.2.2 1.7.6.4.4.7.9.8 1.5.1.6.2 1.6.2 3v11.4h-3.9V29.5c0-1.1 0-1.8-.1-2-.1-.2-.2-.4-.5-.4s-.5.1-.5.4c-.1.3-.1 1-.1 2.3v10.9h-3.9V24.6h4zm15.1 6.1H113v-1.9c0-.7 0-1.1-.1-1.3-.1-.2-.2-.3-.5-.3s-.4 0-.4.2c-.1.2-.1.7-.1 1.4v7.6c0 .6.1 1 .2 1.3.1.3.3.4.5.4.3 0 .4-.2.5-.5.1-.3.1-.9.1-1.7V34h3.5c0 1.3 0 2.3-.1 2.9-.1.6-.3 1.3-.7 2-.4.7-.8 1.2-1.4 1.5-.6.3-1.3.5-2.2.5-1.1 0-2-.2-2.6-.7-.7-.5-1.1-1.1-1.4-2-.3-.9-.4-2.1-.4-3.7v-4.4c0-1.4.1-2.4.3-3.1.2-.7.7-1.3 1.4-1.9.7-.5 1.6-.8 2.6-.8s1.9.3 2.6.8c.7.5 1.2 1.2 1.5 2.1.3.9.4 2 .4 3.5zm13.7 1.7c0 2 0 3.4-.1 4.2-.1.8-.3 1.6-.7 2.3-.4.7-.9 1.2-1.6 1.6-.7.4-1.5.5-2.3.5-.8 0-1.6-.2-2.3-.5-.7-.3-1.2-.9-1.6-1.6-.4-.7-.7-1.4-.7-2.3-.1-.8-.1-2.2-.1-4.3v-3.4c0-2 0-3.4.1-4.2.1-.8.3-1.6.7-2.3.4-.7.9-1.2 1.6-1.6.7-.4 1.5-.5 2.3-.5.8 0 1.6.2 2.3.5.7.3 1.2.9 1.6 1.6.4.7.7 1.4.7 2.3.1.8.1 2.2.1 4.3v3.4zm-4.1-6.5c0-.9 0-1.5-.1-1.8-.1-.3-.2-.4-.5-.4-.2 0-.4.1-.5.3-.1.2-.2.8-.2 1.8V35c0 1.1 0 1.9.1 2.1.1.3.3.4.5.4.3 0 .5-.2.5-.5.1-.3.1-1 .1-2.2v-8.9h.1zm9.5-1.5l-.2 2.1c.6-1.5 1.4-2.3 2.5-2.4v5.7c-.7 0-1.3.1-1.6.4-.3.2-.5.6-.6 1-.1.4-.1 1.4-.1 3v6.4h-3.9V24.4h3.9zm7.2-3.6v2.6h-4.1v-2.6h4.1zm0 3.6v16.2h-4.1V24.4h4.1zm10.4 5.7v4c0 1.5-.1 2.5-.2 3.2-.1.7-.4 1.3-.8 1.9-.4.6-.9 1-1.5 1.3-.6.3-1.3.4-2.1.4-.9 0-1.6-.1-2.2-.4-.6-.2-1.1-.6-1.4-1.1-.3-.5-.6-1.1-.7-1.8-.1-.7-.2-1.7-.2-3.1v-4.2c0-1.5.1-2.7.4-3.5.3-.8.7-1.5 1.4-2s1.5-.8 2.6-.8c.9 0 1.6.2 2.3.5.6.3 1.1.8 1.5 1.3.3.5.6 1.1.7 1.6.1.5.2 1.5.2 2.7zm-4-1.3c0-.8 0-1.4-.1-1.6-.1-.2-.2-.3-.5-.3s-.4.1-.5.3c-.1.2-.1.7-.1 1.6v7.3c0 .8 0 1.3.1 1.5.1.2.2.3.5.3.2 0 .4-.1.5-.3.1-.2.1-.7.1-1.4v-7.4zm9.3-4.4l-.1 1.5c.3-.6.6-1 1-1.3.4-.3.9-.4 1.4-.4.7 0 1.2.2 1.7.6.4.4.7.9.8 1.5.1.6.2 1.6.2 3v11.4h-3.9V29.3c0-1.1 0-1.8-.1-2-.1-.2-.2-.4-.5-.4s-.5.1-.5.4c-.1.3-.1 1-.1 2.3v10.9h-3.9V24.4h4z" fill="#fff"/></svg>